HIERARCHY
ROOT Hips
{
	OFFSET 0.00000 0.00000 0.00000
	CHANNELS 6 Xposition Yposition Zposition Yrotation Zrotation Xrotation 
	JOINT Lumbar
	{
		OFFSET 0 0 0
		CHANNELS 3 Zrotation Xrotation Yrotation
		JOINT Neck
		{
			OFFSET 0.00 0.2701 0.00
			CHANNELS 3 Zrotation Xrotation Yrotation
			End Site
			{
				OFFSET 0.00 0.1379 0.00
			}
		}
		JOINT RightShoulder
		{
			OFFSET 0.0119 0.2289 0.1181
			CHANNELS 3 Zrotation Xrotation Yrotation
			JOINT RightElbow
			{
				OFFSET 0.00 -0.1475 0.00
				CHANNELS 2 Zrotation Yrotation
				JOINT RightWrist
				{
					OFFSET 0.00 -0.1605 0.00
					CHANNELS 2 Zrotation Xrotation
					End Site
					{
						OFFSET 0.0040 -0.1068 0.0006
					}
				}
			}
		}
		JOINT LeftShoulder
		{
			OFFSET 0.0119 0.2289 -0.1181
			CHANNELS 3 Zrotation Xrotation Yrotation
			JOINT LeftElbow
			{
				OFFSET 0.00 -0.1475 0.00
				CHANNELS 2 Zrotation Yrotation
				JOINT LeftWrist
				{
					OFFSET 0.00 -0.1605 0.00
					CHANNELS 2 Zrotation Xrotation
					End Site
					{
						OFFSET 0.0040 -0.1068 -0.0006
					}
				}
			}
		}
	}
	JOINT RightHip
	{
		OFFSET 0.0316 -0.0424 0.0458
		CHANNELS 3 Zrotation Xrotation Yrotation
		JOINT RightKnee
		{
			OFFSET 0.00 -0.2438 0.00
			CHANNELS 1 Zrotation
			JOINT RightAnkle
			{
				OFFSET 0.00 -0.2449 0.00
				CHANNELS 3 Zrotation Xrotation Yrotation
				End Site
				{
					OFFSET 0.1237 -0.0542 0.0051
				}
			}
		}
	}
	JOINT LeftHip
	{
		OFFSET 0.0316 -0.0424 -0.0458
		CHANNELS 3 Zrotation Xrotation Yrotation
		JOINT LeftKnee
		{
			OFFSET 0.00 -0.2438 0.00
			CHANNELS 1 Zrotation
			JOINT LeftAnkle
			{
				OFFSET 0.00 -0.2449 0.00
				CHANNELS 3 Zrotation Xrotation Yrotation
				End Site
				{
					OFFSET 0.1237 -0.0542 -0.0051
				}
			}
		}
	}
}
MOTION
Frames: 11
Frame Time: 0.02
0 0.57926 -0 181.70434 0 -3.57151 1.89805 2.70438 -3.5418 -25.86305 3.11516 3.49121 -35.87918 -75.41357 -86.91374 22.8067 75.09606 -24.37023 -3.22323 -15.37103 73.90291 69.50249 23.76195 -76.6593 -34.11694 2.4194 -3.26472 4.42973 7.55991 -7.60167 -2.22707 -2.68456 -6.64259 -2.10475 2.81768 0.79452 -7.2625 4.17884 1.35898 -0.33284
-8e-05 0.57926 4e-05 181.69392 0 -3.5714 1.90452 2.70899 -3.53738 -25.89539 3.10024 3.48656 -35.76411 -75.38863 -86.75961 22.79304 75.59177 -24.50586 -3.0414 -15.24535 73.89816 69.40544 23.75349 -76.63531 -34.11001 2.422 -3.2741 4.42563 7.57175 -7.59611 -2.219 -2.70195 -6.64354 -2.11221 2.8134 0.80593 -7.26629 4.23034 1.35583 -0.36547
-0.00016 0.57925 8e-05 181.68358 0 -3.57129 1.91088 2.7136 -3.53305 -25.92735 3.0854 3.48189 -35.64926 -75.36333 -86.60691 22.78013 76.08443 -24.64055 -2.86092 -15.12111 73.89297 69.30973 23.74557 -76.6117 -34.10307 2.42456 -3.28341 4.42151 7.58359 -7.59068 -2.21093 -2.71923 -6.64456 -2.11965 2.80911 0.8172 -7.27007 4.28127 1.35273 -0.39764
-0.00024 0.57924 0.00012 181.67326 0 -3.57115 1.91698 2.71826 -3.52888 -25.95831 3.07086 3.47726 -35.53724 -75.33773 -86.45782 22.76754 76.56602 -24.77473 -2.68458 -15.00145 73.8871 69.21711 23.73758 -76.58967 -34.0958 2.42702 -3.29245 4.41734 7.59585 -7.58578 -2.20276 -2.73626 -6.64599 -2.12708 2.80469 0.82813 -7.27386 4.33032 1.34979 -0.42809
-0.00032 0.57924 0.00016 181.66259 0 -3.57114 1.92458 2.72265 -3.52369 -25.99481 3.0549 3.4726 -35.41398 -75.31541 -86.2889 22.75017 77.10181 -24.91397 -2.48687 -14.85754 73.88624 69.10652 23.72734 -76.55961 -34.09003 2.43001 -3.30279 4.41347 7.60628 -7.57817 -2.19512 -2.75461 -6.64541 -2.13459 2.80091 0.84098 -7.27762 4.38921 1.34599 -0.46742
-0.00039 0.57923 0.00021 181.65284 0 -3.57086 1.92891 2.72763 -3.52076 -26.01941 3.04184 3.46787 -35.31204 -75.28503 -86.16258 22.745 77.52545 -25.04075 -2.3342 -14.76507 73.87382 69.03512 23.72362 -76.54635 -34.08124 2.43188 -3.31046 4.40895 7.62029 -7.5762 -2.18638 -2.77015 -6.64896 -2.14192 2.79579 0.84968 -7.28143 4.42732 1.34401 -0.4881
-0.00047 0.57922 0.00028 181.6441 0 -3.56982 1.92467 2.73431 -3.52334 -26.01162 3.03752 3.46409 -35.2897 -75.24007 -86.15006 22.75778 77.61385 -25.14887 -2.30949 -14.8173 73.83535 69.0653 23.72473 -76.58256 -34.06176 2.43053 -3.31008 4.40267 7.64734 -7.59115 -2.17408 -2.77806 -6.66536 -2.14901 2.78677 0.84732 -7.28564 4.40616 1.34742 -0.45446
-0.00055 0.57921 0.00037 181.63655 0 -3.56853 1.91701 2.7416 -3.52834 -25.99167 3.03599 3.46001 -35.28485 -75.18543 -86.18097 22.7861 77.5935 -25.24155 -2.32973 -14.921 73.78361 69.13651 23.73549 -76.63523 -34.03929 2.42806 -3.30713 4.39571 7.6775 -7.61159 -2.16076 -2.78312 -6.6857 -2.15588 2.77641 0.8407 -7.28985 4.36434 1.35263 -0.40245
-0.00063 0.5792 0.00046 181.62949 0 -3.56739 1.91061 2.74857 -3.53268 -25.97701 3.03268 3.45535 -35.25875 -75.13025 -86.19484 22.81715 77.64008 -25.3313 -2.32682 -14.99953 73.73469 69.19305 23.74961 -76.67835 -34.02013 2.42617 -3.30584 4.38905 7.70416 -7.62864 -2.14826 -2.78941 -6.70328 -2.16268 2.7668 0.83577 -7.29389 4.33318 1.3568 -0.36069
-0.00071 0.57919 0.00054 181.61822 0 -3.56612 1.90553 2.75569 -3.5351 -25.96351 3.03151 3.4538 -35.28964 -75.09627 -86.19843 22.80557 77.61415 -25.46338 -2.33473 -15.08568 73.70133 69.23191 23.72839 -76.73003 -33.99417 2.42397 -3.30255 4.38245 7.73944 -7.64939 -2.1343 -2.79597 -6.72486 -2.17017 2.75666 0.83187 -7.29865 4.29669 1.36187 -0.31104
-0.00078 0.57919 0.00062 181.61583 0 -3.56504 1.8968 2.76265 -3.54219 -25.9445 3.02658 3.44561 -35.20492 -75.01542 -86.23235 22.88809 77.71161 -25.50316 -2.33166 -15.16805 73.62991 69.31845 23.78639 -76.76802 -33.97984 2.42215 -3.30273 4.37555 7.75774 -7.66382 -2.1231 -2.80129 -6.73913 -2.17621 2.74725 0.82484 -7.30191 4.26636 1.36553 -0.2733
